# xmcd
#
# Track frame offsets:
#	150
#	15860
#	29847
#	49172
#	63455
#	81352
#	95892
#	113740
#	135712
#	154647
#	172175
#	189232
#	203635
#	217865
#	235460
#	254067
#
# Disc length: 3656
#
# Revision: 1
# Processed by: cddbd v1.5.1PL0 Copyright (c) Steve Scherf et al.
# Submitted via: ExactAudioCopy v0.90b4
# Normalized: r0:TDELIM( - )
#
DISCID=e30e4610
DTITLE=Engelbert and Audrey Landers - In Liebe Engelbert and Audrey Landers
DYEAR=1986
DGENRE=Country
TTITLE0=Engelbert - Please Release Me
TTITLE1=Engelbert - The Last Waltz
TTITLE2=Engelbert - What Are You Waiting For
TTITLE3=Engelbert - Dream of Me
TTITLE4=Engelbert - Then You Walked Into My Life
TTITLE5=Engelbert - The Spanish Night Is Over
TTITLE6=Engelbert - Love Life
TTITLE7=Engelbert - The Power Of Love
TTITLE8=Audrey Landers - Manuel Goodbye
TTITLE9=Audrey Landers - Jim, Jeff and Johnny
TTITLE10=Audrey Landers - Chinatown Is In New York
TTITLE11=Audrey Landers - Paradise Generation
TTITLE12=Audrey Landers - These Silver Wings
TTITLE13=Audrey Landers - Hey Sam
TTITLE14=Audrey Landers - Summernight In Rome
TTITLE15=Audrey Landers - Ready For Love
EXTD=
EXTT0=
EXTT1=
EXTT2=
EXTT3=
EXTT4=
EXTT5=
EXTT6=
EXTT7=
EXTT8=
EXTT9=
EXTT10=
EXTT11=
EXTT12=
EXTT13=
EXTT14=
EXTT15=
PLAYORDER=
